<?xml version="1.0" ?><svg id="图层_1" version="1.1" viewBox="0 0 4000 4000" xml:space="preserve" xmlns="http://www.w3.org/2000/svg" xmlns:xlink="http://www.w3.org/1999/xlink"><style>.st1,.st2,.st3,.st4{fill-rule:evenodd;clip-rule:evenodd;fill:#24245b}.st2,.st3,.st4{fill:#232357}.st3,.st4{fill:#f99382}.st4{fill:#006cff}.st11,.st7{fill:none;stroke:#24245b;stroke-width:8.1667;stroke-linecap:round;stroke-linejoin:round;stroke-miterlimit:12.5}.st11{fill-rule:evenodd;clip-rule:evenodd;fill:#ffebe2;stroke:#c47cb9}</style><g id="图层3"><path clip-rule="evenodd" d="M1958.6 1533.9c694.3-772.2 1378.2-538.7 1516.1-120.3 385.1 1168.5-1615.6 1987.6-2811.9 1116.9-311-226.4-262.5-607.8 382.2-421.9 467.6 134.9 555-175.9 913.6-574.7z" fill="#aec6f8" fill-rule="evenodd"/><path class="st1" d="M2496.3 943.3c-34.1-22.9-188.1-31.1-201.8 299.8v249.6c-44.1-21.3-197.6-107.1-328.2-66.7-88.7 27.4-152 119.8-156 180.7 0 0 108.3-95.3 280.8-82.1 0 0-187.1 11.2-293.6 142.3-36.3 44.7-65.7 98.4-80.6 164.8-84.2 376 315 469.1 470.8 209.3 0 0 576.9 150 794.9-76.5 233.6-242.8-100.5-573.7-89-669.3 24.3-202.7-47.6-191-103.5-268.3-116.4-161-266.7-161.9-293.8-83.6z"/><path class="st2" d="M1512 2147.5c14.2 26.4-39.1 82.7-118.9 125.7-79.8 42.9-156.2 56.4-170.4 29.9s39.1-82.8 118.9-125.7c79.8-42.9 156.2-56.3 170.4-29.9z"/><path class="st3" d="M1491.5 2200.1s-12.4-25.6-24.6-62.8c-12.2-37.2-68.3-65.8-80.8-96.3-16.7-40.7-59.4-121.1-101.8-96.5-23.3 13.5 23.6 50 21.9 101.7 0 0-17-7.7-32.6-9.5 0 0-127.3-124.5-205.1-72.3 0 0-59.2-17.6-69.8 26.9-5.1 21.3 58.7 15.3 137.8 76.9 0 0 21.2 23.1 39.6 62.2 14.8 31.4 72.8 133.8 108.2 186.1 0 .2 138.7 26.3 207.2-116.4z"/><path class="st4" d="M1512.1 2147.7c9.7 17.9 138.7 255.3 209.8 355.7 0 0 203.8-443.7 322.3-580 124.6-143.4 446.5-175.2 618.4-138.8 171.9 36.3 369.4 129.2 412.4 283.9 66.9 240.7-190.4 545.5-243.7 616.5l-61.8 309.1c-29.3 72-513.2 225.2-864.7-26.2l50.1-226-36-17.1s-69.7 137.9-213.4 134.8c-112.9-2.5-229.5-104.1-482.7-556.4 14.3 26.4 90.6 13 170.4-30 79.5-42.8 132.7-99 118.9-125.5z"/><defs><path d="M1512.1 2147.7c9.7 17.9 138.7 255.3 209.8 355.7 0 0 203.8-443.7 322.3-580 124.6-143.4 446.5-175.2 618.4-138.8 171.9 36.3 369.4 129.2 412.4 283.9 66.9 240.7-190.4 545.5-243.7 616.5l-61.8 309.1c-29.3 72-513.2 225.2-864.7-26.2l50.1-226-36-17.1s-69.7 137.9-213.4 134.8c-112.9-2.5-229.5-104.1-482.7-556.4 14.3 26.4 90.6 13 170.4-30 79.5-42.8 132.7-99 118.9-125.5z" id="SVGID_1_"/></defs><clipPath id="SVGID_2_"><use overflow="visible" xlink:href="#SVGID_1_"/></clipPath><g clip-path="url(#SVGID_2_)"><path class="st1" d="M2546.4 2919.9c175.8-.9 238.5-36.3 347.3-175l-62.5-65.3-278.4 184.1s-80.2 56.6-6.4 56.2zM1757 2854.5c76-25.5 115.1-82.4 122.5-149.2 0 0 95.5 47.4 75.6-27.2l-6.7 60.6-75.3 167.4s-173.2-32.5-116.1-51.6z"/></g><path class="st4" d="M1511.8 2147.3l-.4-.6.4.6z"/><defs><path d="M1511.8 2147.3l-.4-.6.1-.1.3.7z" id="SVGID_3_"/></defs><clipPath id="SVGID_4_"><use overflow="visible" xlink:href="#SVGID_3_"/></clipPath><g clip-path="url(#SVGID_4_)"><path class="st1" d="M2536.2 2917.1c70.6 21.3 207.3 18.6 357.6-115l-62.5-122.6-278.4 184.1c-.1.1-87.4 32.2-16.7 53.5zM1757 2854.5c76-25.5 115.1-82.4 122.5-149.2 0 0 95.5 47.4 75.6-27.2l-6.7 60.6-75.3 167.4s-173.2-32.5-116.1-51.6z"/></g><path class="st7" d="M2049.6 2095.7c-85.5 137.8-122.4 231.6-51 311.4"/><path class="st3" d="M2411.5 1615.1c-10.5-1.6-20.8-4.4-30.9-8.4-109.8-43.4-145.9-212.9-80.5-378.4 65.4-165.5 207.6-264.7 317.4-221.3 85.5 33.7 126.3 143.9 109.3 269.2h42.6c65.6 7.4 30 175-67 179l-40 330.4c-92.3 128.8-321.4 117.2-291.2-4.5l40.3-166z"/><defs><path d="M2411.5 1615.1c-10.5-1.6-20.8-4.4-30.9-8.4-109.8-43.4-145.9-212.9-80.5-378.4 65.4-165.5 207.6-264.7 317.4-221.3 85.5 33.7 126.3 143.9 109.3 269.2h42.6c65.6 7.4 30 175-67 179l-40 330.4c-92.3 128.8-321.4 117.2-291.2-4.5l40.3-166z" id="SVGID_5_"/></defs><clipPath id="SVGID_6_"><use overflow="visible" xlink:href="#SVGID_5_"/></clipPath><g clip-path="url(#SVGID_6_)"><path class="st1" d="M2411.5 1615.1s60.6 12.5 121.1-24.2c0 0-17.4 97.6-141.4 108.1 0-.1-32-49.2 20.3-83.9z"/></g><path class="st1" d="M2485.7 996.8c-45.1 187.3 129.5 433.9 283.7 279.4l-56.9-318.3-179.9 11.6-46.9 27.3z"/><path clip-rule="evenodd" d="M1429 1611.5c0-54.6-44.4-99-99-99H874.5c-54.7 0-99 44.4-99 99v198c0 54.7 44.4 99 99 99H1330c54.6 0 99-44.4 99-99v-198z" fill="#ffebe2" fill-rule="evenodd"/><defs><path d="M1429 1611.5c0-54.6-44.4-99-99-99H874.5c-54.7 0-99 44.4-99 99v198c0 54.7 44.4 99 99 99H1330c54.6 0 99-44.4 99-99v-198z" id="SVGID_7_"/></defs><clipPath id="SVGID_8_"><use overflow="visible" xlink:href="#SVGID_7_"/></clipPath><g clip-path="url(#SVGID_8_)"><path class="st11" d="M1375.9 1820.6c.2.9-136-100.8-241.7-173.6-21.2-14.5-49-14.5-70.2 0-105.5 72.5-241.1 173.8-241.4 173.6"/><path class="st11" d="M772 1494.1c-36.3 31.8 175.2 174.4 295.5 254.5 21.1 14.1 48.6 14 69.6-.3 117.6-80.8 315.3-227.3 295.3-254.2"/></g><path class="st2" d="M2023.2 2375.9c37.7 17.3 34.7 104.4-6.5 194.5-41.3 90.1-105.3 149.2-143 131.9-37.7-17.3-34.7-104.4 6.5-194.5 41.2-90 105.3-149.2 143-131.9z"/><path clip-rule="evenodd" d="M1751.9 2387.8l-85.1-241.1 98.4 22.3 81.9 252.1-95.2-33.3z" fill-rule="evenodd"/><path class="st1" d="M1765.2 2168.9l27.1-16.2 80.7 254.4-25.9 13.9-81.9-252.1z"/><path class="st1" d="M1666.8 2146.6l28.2-17.4 97.4 23.5-27.1 16.2-98.5-22.3z"/><path class="st3" d="M2045.8 2407.1s-105.8-39.1-135.6-133.9c-13-41.1-60.3-36.3-55.6 24.2 1.6 21.1 12.1 71.7 44.4 101.1 0 0-91.4-8.2-120.8-37.9-58.2-58.7-110.8-98.3-130.4-74.9-19.7 23.6 47.2 87.2 47.2 87.2s-5.9 71.5 26.9 130.5c0 0-43.6 101.6 210.1 183.1 0 0 209.9-55.5 113.8-279.4z"/><path class="st4" d="M2831.2 2684.9s-138 188.7-284.8 235c-164.2 51.8-673.3-217.9-673.3-217.9l.5.3c37.7 17.3 101.7-41.9 143-131.9 41.3-90.1 44.2-177.2 6.5-194.5l433.9 188.8 340.6-455.7"/><g><defs><path d="M2831.2 2684.9s-138 188.7-284.8 235c-164.2 51.8-673.3-217.9-673.3-217.9l.5.3c37.7 17.3 101.7-41.9 143-131.9 41.3-90.1 44.2-177.2 6.5-194.5l433.9 188.8 340.6-455.7" id="SVGID_9_"/></defs><clipPath id="SVGID_10_"><use overflow="visible" xlink:href="#SVGID_9_"/></clipPath><g clip-path="url(#SVGID_10_)"><path class="st7" d="M2023 2379.7l434 191.1 331.3-433.5"/></g></g><g><path class="st7" d="M2569.7 2915.2c-203 70.1-614.8-173.3-614.8-173.3M1128.5 2055.8s-13.5-11-38.2-29c-33-24 22.5-110.6 148.7 58.2 0 0 93.8 19.7 128.3 103.3M1765.2 2453c-28.3-33.3-50.8-58.7-70.3-80.1M1721.9 2503.4s9.1 12.4 20.1 23.7M2427.2 1219.8s-53.6 98.2-56.4 122.8c-1.8 15.6 6.4 22.6 18 28.2M2387 1460.8s69.1 19.3 109.2-43.3M2329.8 1181s29.5-65.1 88.9-31.7M2485.7 1155.3s44.2-25.6 100.9 25.7M2738.9 1313.5s-25.7 32.3-30.9 88.1M2713.9 1368.5s18.2-28.1 49.4-33.4"/></g><circle clip-rule="evenodd" cx="1429" cy="1512.4" fill="#c47cb9" fill-rule="evenodd" r="97.5"/><g><path class="st1" d="M2359.7 1214.6c8.1.1 12.8 10.2 10.5 22.5-2.3 12.3-10.8 22.2-18.9 22-8.1-.1-12.8-10.2-10.5-22.6 2.3-12.2 10.7-22.1 18.9-21.9zM2508.4 1217.1c8.1.1 12.8 10.2 10.5 22.6-2.3 12.3-10.8 22.2-18.9 22-8.1-.1-12.8-10.2-10.5-22.6 2.3-12.3 10.8-22.2 18.9-22z"/></g></g></svg>